<svg xmlns="http://www.w3.org/2000/svg" width="26.314" height="28.342" viewBox="0 0 26.314 28.342">
  <defs>
    <style>
      .cls-1 {
        fill: #8dc63f;
      }

      .cls-1, .cls-2 {
        fill-rule: evenodd;
      }

      .cls-2 {
        fill: #0689b7;
      }
    </style>
  </defs>
  <g id="Group_1736" data-name="Group 1736" transform="translate(-2.021 -115.92)">
    <path id="Path_1455" data-name="Path 1455" class="cls-1" d="M12.749,119.466c-.216,0-.417,0-.617,0a.624.624,0,0,1-.654-.616.616.616,0,0,1,.643-.622c.449-.006.9-.007,1.343,0a.6.6,0,0,1,.626.584,2.935,2.935,0,0,1-.946,2.358,2.72,2.72,0,0,1-3.226.143,2.924,2.924,0,0,1,1.632-5.393,2.869,2.869,0,0,1,1.484.442.626.626,0,1,1-.651,1.061,1.683,1.683,0,1,0-.6,3.077,1.254,1.254,0,0,0,.961-1.035" transform="translate(2.937)"/>
    <path id="Path_1456" data-name="Path 1456" class="cls-1" d="M7.108,115.933a.744.744,0,0,1,.752.522q.5,1.32.993,2.635c.229.615.464,1.225.693,1.838a.594.594,0,0,1-.151.678.532.532,0,0,1-.643.125.988.988,0,0,1-.355-.365,2.816,2.816,0,0,1-.223-.559.191.191,0,0,0-.214-.158c-.541.007-1.083,0-1.623,0a.174.174,0,0,0-.2.132c-.068.2-.143.39-.225.583a.619.619,0,1,1-1.155-.442q.85-2.246,1.706-4.486a.708.708,0,0,1,.642-.5m.071,2.242H7.134c-.154.4-.306.8-.465,1.214h.97c-.158-.419-.309-.817-.459-1.214" transform="translate(1.21 0.006)"/>
    <path id="Path_1457" data-name="Path 1457" class="cls-1" d="M13.2,118.836c0-.719,0-1.436,0-2.154,0-.5.239-.738.746-.738.591,0,1.184,0,1.777,0a.6.6,0,0,1,.571.338.582.582,0,0,1-.026.61.605.605,0,0,1-.541.291c-.371,0-.745,0-1.115,0-.133,0-.175.043-.174.174.009.232.01.468,0,.7-.006.148.055.183.188.178.309-.007.617,0,.926,0a.62.62,0,1,1,.017,1.238c-.319,0-.642.006-.962,0-.139,0-.171.057-.167.181,0,.228.007.454,0,.68,0,.141.041.188.184.186.371-.01.742-.013,1.115,0a.615.615,0,0,1,.542.928.589.589,0,0,1-.53.31c-.642,0-1.284.007-1.926,0a.62.62,0,0,1-.623-.667c0-.751,0-1.5,0-2.251" transform="translate(5.023 0.01)"/>
    <path id="Path_1458" data-name="Path 1458" class="cls-2" d="M20.664,140.956H16.8v-7.494c0-.632-.22-.836-.994-.917a.887.887,0,0,1-.877-.893q0-1.913,0-3.83c0-.564-.023-1.133.036-1.7.238-2.125,2.726-3.378,5.184-2.626a3.068,3.068,0,0,1,2.375,2.812c.03,1.812.012,3.625.007,5.439,0,.439-.394.758-.936.8-.641.046-.928.306-.928.838v7.57Z" transform="translate(5.797 3.306)"/>
    <path id="Path_1459" data-name="Path 1459" class="cls-2" d="M14.206,139.531H10.351V134.3c0-.581-.259-.823-.954-.89-.542-.051-.906-.351-.909-.79-.009-1.08-.051-2.162.017-3.241a3,3,0,0,1,2.394-2.725,4.51,4.51,0,0,1,4.17.757,2.8,2.8,0,0,1,1,2.165c.012.994.009,1.988,0,2.981-.006.5-.345.8-.945.855-.642.059-.925.317-.925.846v5.268Z" transform="translate(2.897 4.731)"/>
    <path id="Path_1460" data-name="Path 1460" class="cls-2" d="M7.756,138.112H3.891v-3c0-.5-.286-.759-.9-.814s-.967-.367-.967-.864a4.559,4.559,0,0,1,.154-1.6,3.865,3.865,0,0,1,3.983-2.213A3.5,3.5,0,0,1,9.592,132.4a6.821,6.821,0,0,1,.029,1.088c-.014.449-.377.754-.923.807-.691.068-.941.3-.942.871,0,.894,0,1.787,0,2.677Z" transform="translate(0 6.15)"/>
    <path id="Path_1461" data-name="Path 1461" class="cls-2" d="M5.24,130.094a1.593,1.593,0,1,1-.006-3.122,1.761,1.761,0,0,1,1.916,1.544,1.739,1.739,0,0,1-1.91,1.578" transform="translate(0.586 4.966)"/>
    <path id="Path_1462" data-name="Path 1462" class="cls-2" d="M11.7,126.958a1.594,1.594,0,1,1-.006-3.123,1.766,1.766,0,0,1,1.916,1.545,1.738,1.738,0,0,1-1.91,1.578" transform="translate(3.489 3.556)"/>
    <path id="Path_1463" data-name="Path 1463" class="cls-2" d="M18.2,123.684a1.6,1.6,0,1,1-.006-3.126,1.766,1.766,0,0,1,1.916,1.548,1.742,1.742,0,0,1-1.91,1.578" transform="translate(6.409 2.084)"/>
  </g>
</svg>
