<svg xmlns="http://www.w3.org/2000/svg" width="28.607" height="28.615" viewBox="0 0 28.607 28.615">
  <defs>
    <style>
      .cls-1 {
        fill: #59c68b;
      }
    </style>
  </defs>
  <g id="Group_1617" data-name="Group 1617" transform="translate(0)">
    <path id="Path_1294" data-name="Path 1294" class="cls-1" d="M-298.968,221.627v23.589c-.62,1.869-1.933,2.539-3.869,2.524-7.144-.056-14.289-.021-21.434-.024a3.1,3.1,0,0,1-3.3-3.315q0-10.98,0-21.959a4.367,4.367,0,0,1,.077-.885,3.2,3.2,0,0,1,2.423-2.432h23.6A3.511,3.511,0,0,1-298.968,221.627Zm-14.376,22.82c2.483,0,4.966.009,7.449,0a3.143,3.143,0,0,0,3.462-3.471c0-3.455.008-6.91,0-10.364a3.116,3.116,0,0,0-3.276-3.241q-7.568,0-15.137,0a3.076,3.076,0,0,0-3.29,3.267q-.006,5.3,0,10.6a3.523,3.523,0,0,0,.08.824,3.083,3.083,0,0,0,3.323,2.381C-318.27,244.458-315.806,244.446-313.343,244.447Zm6.243-22.071a10.529,10.529,0,0,0-12.326.077l2.313,3.13,3.1-1.126c-.344-.7-.7-1.426-1.065-2.146-.149-.289-.165-.479.261-.517.459.777.912,1.566,1.392,2.338.1.164.3.371.459.382a7.268,7.268,0,0,1,3.595,1.22Z" transform="translate(327.575 -219.125)"/>
    <path id="Path_1295" data-name="Path 1295" class="cls-1" d="M-219.263,335.569c-.786.227-.874.165-.875-.587,0-1.676,0-3.352-.124-5.06-.228.554-.459,1.107-.683,1.663-.483,1.193-.969,2.384-1.438,3.582-.116.3-.248.613-.6.5a1.037,1.037,0,0,1-.581-.537c-.7-1.724-1.352-3.463-2.119-5.193-.01.178-.029.356-.029.534,0,1.547-.009,3.094,0,4.641,0,.349-.061.57-.465.579-.431.009-.458-.249-.456-.584.009-1.785,0-3.57.01-5.355,0-.329-.13-.747.393-.861a1.071,1.071,0,0,1,1.339.564c.569,1.413,1.125,2.833,1.687,4.249.072.181.15.359.271.644.686-1.661,1.324-3.224,1.978-4.78a.945.945,0,0,1,1.26-.671.644.644,0,0,1,.415.44C-219.254,331.421-219.263,333.5-219.263,335.569Z" transform="translate(238.711 -315.726)"/>
    <path id="Path_1296" data-name="Path 1296" class="cls-1" d="M-271.928,332.208a1.782,1.782,0,0,1,1.157,2.1,1.868,1.868,0,0,1-1.732,1.479,17.905,17.905,0,0,1-2.261.015.6.6,0,0,1-.417-.418c-.028-1.944-.018-3.89-.02-5.834,0-.359.2-.5.526-.491.6.008,1.191,0,1.785.04a1.62,1.62,0,0,1,1.618,1.083A1.733,1.733,0,0,1-271.928,332.208Zm-2.349,2.878c.522,0,1,.02,1.469,0a1.1,1.1,0,0,0,1.115-1.026,1.07,1.07,0,0,0-.917-1.249,16.214,16.214,0,0,0-1.667-.136Zm0-3.071c.727-.1,1.559.264,1.98-.528a1.455,1.455,0,0,0-.026-1.263c-.461-.666-1.25-.355-1.954-.416Z" transform="translate(281.466 -315.91)"/>
    <path id="Path_1297" data-name="Path 1297" class="cls-1" d="M-148.967,335.486c-.818.21-.9.152-.9-.582q0-2.729,0-5.459c0-.34-.058-.7.471-.693.552.006.431.4.432.713C-148.965,331.462-148.967,333.459-148.967,335.486Z" transform="translate(171.131 -315.637)"/>
  </g>
</svg>
