<svg xmlns="http://www.w3.org/2000/svg" width="22.408" height="21.355" viewBox="0 0 22.408 21.355">
  <defs>
    <style>
      .cls-1 {
        fill: #fafafa;
      }
    </style>
  </defs>
  <g id="Group_1639" data-name="Group 1639" transform="translate(3702.816 1051.932)">
    <path id="Path_103" data-name="Path 103" class="cls-1" d="M-3699.577-1051.932a5.044,5.044,0,0,1,.687.194,2.343,2.343,0,0,1,1.413,2.049c.049.419.122.836.178,1.254.015.111.067.151.174.14.058-.006.116,0,.175,0h15.428a1,1,0,0,1,1.082.762,1.058,1.058,0,0,1,.017.453c-.508,2.561-1.026,5.12-1.538,7.681a3.654,3.654,0,0,1-.5,1.43,2.743,2.743,0,0,1-2.376,1.238c-3.45,0-6.9.01-10.351,0a2.793,2.793,0,0,1-2.811-2.553c-.171-1.343-.385-2.68-.581-4.02q-.277-1.891-.552-3.781c-.121-.828-.239-1.657-.361-2.486-.041-.274-.113-.332-.389-.333-.554,0-1.11-.022-1.663.005a1.13,1.13,0,0,1-1.266-.8v-.437a1.214,1.214,0,0,1,.832-.788Z" transform="translate(0 0)"/>
    <path id="Path_104" data-name="Path 104" class="cls-1" d="M-3370.154-681.387a2.612,2.612,0,0,1-2.6,2.606,2.623,2.623,0,0,1-2.616-2.616,2.61,2.61,0,0,1,2.6-2.6A2.6,2.6,0,0,1-3370.154-681.387Z" transform="translate(-313.083 -351.797)"/>
    <path id="Path_105" data-name="Path 105" class="cls-1" d="M-3575.439-683.871a2.6,2.6,0,0,1,2.565,2.693,2.618,2.618,0,0,1-2.572,2.518,2.621,2.621,0,0,1-2.545-2.7A2.6,2.6,0,0,1-3575.439-683.871Z" transform="translate(-119.35 -351.918)"/>
  </g>
</svg>
