<svg xmlns="http://www.w3.org/2000/svg" width="30.666" height="28.616" viewBox="0 0 30.666 28.616">
  <defs>
    <style>
      .cls-1 {
        fill: #e38a5a;
      }
    </style>
  </defs>
  <g id="Group_1621" data-name="Group 1621" transform="translate(0)">
    <path id="Path_1322" data-name="Path 1322" class="cls-1" d="M-2535.316,1684.554c-.073.318-.121.645-.223.953a4.092,4.092,0,0,1-4.238,2.765,4.113,4.113,0,0,1-3.7-4.523,4.113,4.113,0,0,1,4.436-3.633,4.112,4.112,0,0,1,3.7,3.615.678.678,0,0,0,.028.1Z" transform="translate(2565.982 -1659.673)"/>
    <path id="Path_1323" data-name="Path 1323" class="cls-1" d="M-3140.469,1362.514v-3.046h-20.442v3.047h-2.036v-5.1h11.22v-3.059h2.051v3.047h11.237v5.113Z" transform="translate(3166.022 -1344.13)"/>
    <path id="Path_1324" data-name="Path 1324" class="cls-1" d="M-3252.934,1684.358a4.1,4.1,0,0,1-4.115,4.08,4.1,4.1,0,0,1-4.072-4.122,4.1,4.1,0,0,1,4.121-4.056A4.1,4.1,0,0,1-3252.934,1684.358Z" transform="translate(3261.121 -1659.828)"/>
    <path id="Path_1325" data-name="Path 1325" class="cls-1" d="M-2898.161,1027.974a4.1,4.1,0,0,1,4.094,4.085,4.1,4.1,0,0,1-4.086,4.093,4.1,4.1,0,0,1-4.1-4.093A4.1,4.1,0,0,1-2898.161,1027.974Z" transform="translate(2913.498 -1027.974)"/>
    <path id="Path_1326" data-name="Path 1326" class="cls-1" d="M-2898.167,1680.262a4.1,4.1,0,0,1,4.1,4.08,4.1,4.1,0,0,1-4.1,4.1,4.1,4.1,0,0,1-4.093-4.088A4.1,4.1,0,0,1-2898.167,1680.262Z" transform="translate(2913.499 -1659.83)"/>
  </g>
</svg>
