<svg id="Group_1620" data-name="Group 1620" xmlns="http://www.w3.org/2000/svg" width="26.27" height="31.264" viewBox="0 0 26.27 31.264">
  <defs>
    <style>
      .cls-1 {
        fill: #a050c6;
      }
    </style>
  </defs>
  <path id="Path_1305" data-name="Path 1305" class="cls-1" d="M-2023.1,1251.271l5.494-1.479-.284-1.063c-.342.09-.658.172-.974.256-1.922.515-3.846,1.022-5.763,1.553a2.689,2.689,0,0,1-1.2-.13c-.065-.01-.13-.162-.156-.259-.33-1.2-.652-2.412-.978-3.618-.026-.095-.056-.188-.1-.323l-6.766,1.811c.153.58.3,1.142.45,1.7.182.684.373,1.365.542,2.052a.408.408,0,0,1-.088.332c-.508.49-1.033.963-1.553,1.44a.515.515,0,0,1-.112.053l-2-7.46-2.545.682c.046.187.084.356.128.522q1.276,4.774,2.552,9.548a.888.888,0,0,1,.031.355c-.13.827-.271,1.652-.41,2.493l-3.672-13.7,3.623-.978-.783-2.962,18.927-5.072c.136.5.262.968.388,1.435q1.991,7.431,3.983,14.863a2.942,2.942,0,0,1-2.164,3.818c-.542.151-1.087.293-1.629.438l-.913-2.419,2.7-.734-.281-1.06c-.54.139-1.059.27-1.577.407-.427.113-.855.226-1.278.355a.3.3,0,0,1-.392-.122c-.22-.3-.466-.583-.735-.915l3.644-.984-.286-1.065c-.841.224-1.65.438-2.459.655-.577.154-1.152.314-1.729.463a.407.407,0,0,1-.281-.008C-2022.18,1251.884-2022.609,1251.595-2023.1,1251.271Zm-2.373-9.074h.05c.221.432.44.864.663,1.295.429.831.428.823,1.342.561a.271.271,0,0,0,.237-.321c-.029-1.149-.049-2.3-.074-3.448a.88.88,0,0,0-.028-.148c-.921.135-.921.135-.891,1.014,0,.133.009.265.016.4.026.508.054,1.016.086,1.609-.414-.793-.8-1.5-1.151-2.22-.116-.238-.245-.277-.463-.186a.628.628,0,0,1-.192.051c-.358.026-.437.215-.4.554.049.449.032.905.051,1.358.012.3.038.6.058.9-.429-.715-.8-1.442-1.183-2.16-.045-.084-.178-.188-.253-.175a7.22,7.22,0,0,0-.782.212c.07.139.12.247.177.351.415.755.834,1.508,1.248,2.264.43.787.426.78,1.3.554.225-.058.3-.143.288-.38C-2025.421,1243.583-2025.444,1242.889-2025.476,1242.2Zm-5.23,3.8-.98-3.642-.872.243.65,2.391-.065.047c-.067-.087-.128-.179-.2-.26-.5-.547-1-1.094-1.507-1.633-.075-.079-.207-.178-.291-.161-.386.078-.765.193-1.176.3l.975,3.637.876-.229-.7-2.531c.128.137.2.215.277.3.515.563,1.025,1.13,1.55,1.684a.47.47,0,0,0,.353.144C-2031.461,1246.22-2031.114,1246.108-2030.706,1246Zm5.26,3.409,7.215-1.934-.286-1.069-7.214,1.933Zm6.6-4.256-.293-1.067-7.213,1.935.289,1.068Zm-1.508-5.607a2.673,2.673,0,0,0-1.8.295.98.98,0,0,0-.537.989,1.041,1.041,0,0,0,.767.978c.276.078.568.1.839.188a1.677,1.677,0,0,1,.4.278,4.23,4.23,0,0,1-.39.337.5.5,0,0,1-.258.045c-.3.005-.591,0-.916,0,.066.241.114.468.193.682a.3.3,0,0,0,.2.163,2.358,2.358,0,0,0,1.75-.46,1.046,1.046,0,0,0,.394-1.093,1.014,1.014,0,0,0-.795-.839c-.278-.07-.567-.1-.841-.185a1.386,1.386,0,0,1-.352-.246c.116-.1.22-.262.35-.287a6.612,6.612,0,0,1,.908-.059Zm-7.61,4.869-1.181.3-.176-.674,1.078-.3-.216-.776-1.075.274-.161-.555,1.174-.334-.211-.779-2.159.58.976,3.64,2.157-.579Z" transform="translate(2040.504 -1237.03)"/>
  <path id="Path_1306" data-name="Path 1306" class="cls-1" d="M-1833.26,1587.27l-3.756-.519v-3.011h4.239A13.587,13.587,0,0,1-1833.26,1587.27Z" transform="translate(1850.522 -1560.728)"/>
  <path id="Path_1307" data-name="Path 1307" class="cls-1" d="M-1833.19,1522.215h-4.217v-.7c0-.718,0-1.436,0-2.154,0-.167.032-.247.231-.273,1.126-.142,2.249-.306,3.374-.461a.872.872,0,0,1,.124,0A10.54,10.54,0,0,1-1833.19,1522.215Z" transform="translate(1850.888 -1499.939)"/>
  <path id="Path_1308" data-name="Path 1308" class="cls-1" d="M-1907.408,1522.8h-4.192a10.957,10.957,0,0,1,.482-3.538l3.71.511Z" transform="translate(1920.178 -1500.527)"/>
  <path id="Path_1309" data-name="Path 1309" class="cls-1" d="M-1911.908,1583.632h4.244v3.02l-3.755.514A13.751,13.751,0,0,1-1911.908,1583.632Z" transform="translate(1920.443 -1560.627)"/>
  <path id="Path_1310" data-name="Path 1310" class="cls-1" d="M-1968.526,1502.892c-.182,1.266-.363,2.518-.547,3.8h-3.218a8.545,8.545,0,0,1,1.623-4.679Z" transform="translate(1976.819 -1484.427)"/>
  <path id="Path_1311" data-name="Path 1311" class="cls-1" d="M-1769.4,1502.9l2.137-.876a8.6,8.6,0,0,1,1.627,4.677h-3.22Z" transform="translate(1787.394 -1484.435)"/>
  <path id="Path_1312" data-name="Path 1312" class="cls-1" d="M-1769.194,1587.48l.532-3.788h3.254c-.086.547-.139,1.083-.257,1.6a8.148,8.148,0,0,1-1.265,2.865c-.057.083-.223.178-.293.151C-1767.9,1588.043-1768.565,1587.75-1769.194,1587.48Z" transform="translate(1787.201 -1560.683)"/>
  <path id="Path_1313" data-name="Path 1313" class="cls-1" d="M-1970.609,1588.4a8.594,8.594,0,0,1-1.622-4.669h3.215l.531,3.795Z" transform="translate(1976.762 -1560.722)"/>
  <path id="Path_1314" data-name="Path 1314" class="cls-1" d="M-1837.026,1639.552l3.486.479c-.37,1.82-2.109,4.1-3.486,4.021Z" transform="translate(1850.531 -1612.836)"/>
  <path id="Path_1315" data-name="Path 1315" class="cls-1" d="M-1900.724,1641.089a14.533,14.533,0,0,1,3.5-.49v4.478a4.211,4.211,0,0,1-.57-.137,3.941,3.941,0,0,1-1.658-1.334,8.4,8.4,0,0,1-1.236-2.334A1.222,1.222,0,0,1-1900.724,1641.089Z" transform="translate(1910.002 -1613.813)"/>
  <path id="Path_1316" data-name="Path 1316" class="cls-1" d="M-1837.049,1452.415v-4.557a8.029,8.029,0,0,1,.98.4,5.1,5.1,0,0,1,1.921,2.181c.234.446.42.917.675,1.48Z" transform="translate(1850.553 -1433.865)"/>
  <path id="Path_1317" data-name="Path 1317" class="cls-1" d="M-1897.08,1453.352l-3.487-.481c.429-1.665,1.861-3.859,3.487-4.01Z" transform="translate(1909.855 -1434.801)"/>
  <path id="Path_1318" data-name="Path 1318" class="cls-1" d="M-1802.7,1454.3a8.652,8.652,0,0,1,3.908,2.61l-1.93.777c-.309-.643-.555-1.246-.88-1.8S-1802.321,1454.84-1802.7,1454.3Z" transform="translate(1818.485 -1439.878)"/>
  <path id="Path_1319" data-name="Path 1319" class="cls-1" d="M-1939.242,1458.17l-1.983-.8a8.324,8.324,0,0,1,3.922-2.576A9.369,9.369,0,0,0-1939.242,1458.17Z" transform="translate(1947.814 -1440.34)"/>
  <path id="Path_1320" data-name="Path 1320" class="cls-1" d="M-1801.556,1653.929a9.62,9.62,0,0,0,1.87-3.331l1.972.787A8.275,8.275,0,0,1-1801.556,1653.929Z" transform="translate(1817.416 -1623.149)"/>
  <path id="Path_1321" data-name="Path 1321" class="cls-1" d="M-1939.2,1650.52a9.66,9.66,0,0,0,1.9,3.353,8.317,8.317,0,0,1-3.852-2.554Z" transform="translate(1947.747 -1623.076)"/>
</svg>
