<svg xmlns="http://www.w3.org/2000/svg" width="29.453" height="29.448" viewBox="0 0 29.453 29.448">
  <defs>
    <style>
      .cls-1 {
        fill: #d96bc4;
      }
    </style>
  </defs>
  <g id="Group_1622" data-name="Group 1622" transform="translate(0)">
    <path id="Path_1327" data-name="Path 1327" class="cls-1" d="M-4122.979,987.449c.039-.125.079-.251.116-.377a2.7,2.7,0,0,1,2.588-1.924c0,.289-.02.583,0,.873a8.362,8.362,0,0,0,.179,1.475,4.43,4.43,0,0,0,4.208,3.23c.248,0,.5,0,.787,0,0,.5-.014.985,0,1.469a2.5,2.5,0,0,0,1.173,2.1,2.508,2.508,0,0,0,3.155-.262c1.039-.993,2.046-2.021,3.056-3.044a.792.792,0,0,1,.623-.264c2.531.011,5.062.006,7.592.006h.388v.313q0,2.919,0,5.837a2.743,2.743,0,0,1-2.917,2.917q-5.651.006-11.3-.006a.918.918,0,0,0-.723.3q-1.582,1.61-3.191,3.194a7.341,7.341,0,0,1-.618.5h-.46a1.069,1.069,0,0,1-.641-1.157c.031-.7.008-1.4.008-2.1V999.8c-.416,0-.8,0-1.179,0a2.752,2.752,0,0,1-2.7-1.852c-.055-.16-.1-.324-.151-.486Z" transform="translate(4122.979 -974.335)"/>
    <path id="Path_1328" data-name="Path 1328" class="cls-1" d="M-4040.954,812.173c-.851,0-1.673.01-2.5,0a2.7,2.7,0,0,1-2.582-2.033,3.22,3.22,0,0,1-.1-.794q-.01-4.5,0-9a2.726,2.726,0,0,1,2.849-2.835q9.662,0,19.324,0a2.724,2.724,0,0,1,2.848,2.836q0,4.5,0,9a2.726,2.726,0,0,1-2.826,2.829q-5.751.005-11.5,0a.669.669,0,0,0-.524.218q-1.7,1.717-3.417,3.414a1.238,1.238,0,0,1-.55.333.835.835,0,0,1-1.022-.867C-4040.958,814.253-4040.954,813.237-4040.954,812.173Zm16.094-5.124a3.917,3.917,0,0,0-.817-5.267,3.87,3.87,0,0,0-5.054.243,3.868,3.868,0,0,0-.518,5.033,3.8,3.8,0,0,0,2.217,1.542,3.881,3.881,0,0,0,3.2-.577c.118.124.227.245.341.36a.745.745,0,0,0,1.115.108c.323-.315.286-.743-.107-1.132C-4024.6,807.244-4024.733,807.152-4024.86,807.049Zm-7.507.883a2.26,2.26,0,0,0-.073-.269q-1.146-3.046-2.3-6.09a.858.858,0,0,0-.817-.613.852.852,0,0,0-.829.595q-1.173,3.067-2.336,6.138a.713.713,0,0,0,.387.976.714.714,0,0,0,.946-.453c.113-.274.222-.55.315-.831a.27.27,0,0,1,.306-.219q1.192.016,2.385,0a.272.272,0,0,1,.306.221c.109.316.223.632.361.936a.692.692,0,0,0,.789.383A.737.737,0,0,0-4032.367,807.932Zm-8.989-2.432c.573,0,1.1.008,1.626,0a.713.713,0,0,0,.731-.725.718.718,0,0,0-.72-.707c-.143-.006-.287,0-.431,0h-1.192V802.4c.587,0,1.16,0,1.732,0a.73.73,0,0,0,.814-.731.729.729,0,0,0-.811-.705c-.766,0-1.533,0-2.3,0-.627,0-.889.262-.889.888q0,2.615,0,5.229c0,.316-.009.632,0,.948a.714.714,0,0,0,.7.7.721.721,0,0,0,.73-.7c.007-.1,0-.211,0-.316Z" transform="translate(4050.56 -797.508)"/>
    <path id="Path_1329" data-name="Path 1329" class="cls-1" d="M-3770.36,885.939c-.163-.182-.292-.35-.444-.494a.713.713,0,0,0-1.03-.021.716.716,0,0,0,.014,1.03c.156.164.338.3.52.464a2.409,2.409,0,0,1-3.087-.556,2.449,2.449,0,0,1,.147-3.25,2.438,2.438,0,0,1,3.244-.223A2.4,2.4,0,0,1-3770.36,885.939Z" transform="translate(3794.99 -877.485)"/>
    <path id="Path_1330" data-name="Path 1330" class="cls-1" d="M-3876.9,900.588c.3.783.572,1.512.857,2.268h-1.719Z" transform="translate(3891.891 -894.648)"/>
  </g>
</svg>
