<svg xmlns="http://www.w3.org/2000/svg" width="28.341" height="28.342" viewBox="0 0 28.341 28.342">
  <defs>
    <style>
      .cls-1, .cls-3 {
        fill: #0689b7;
      }

      .cls-1, .cls-2 {
        fill-rule: evenodd;
      }

      .cls-2 {
        fill: #8dc63f;
      }
    </style>
  </defs>
  <g id="Group_1738" data-name="Group 1738" transform="translate(0 -40.663)">
    <path id="Path_1441" data-name="Path 1441" class="cls-1" d="M16.241,48.4H27.108c0,.1.015.2.015.291q0,7.33,0,14.659a2.368,2.368,0,0,1-2.545,2.524H7a1.458,1.458,0,0,1-1.638-1.4c-.126-.02-.259-.034-.389-.058a2.3,2.3,0,0,1-1.933-2.074c-.065-.9-.022-1.817-.027-2.726v-.348H4.937a2.442,2.442,0,0,1,2.311-1.915,2.435,2.435,0,0,1,2.38-2.375,2.431,2.431,0,0,1,.611-1.547,2.313,2.313,0,0,1,1.718-.784c.475-.013.95-.011,1.429,0A2.354,2.354,0,0,1,15.77,54.8c.006.052.011.107.02.18h.451Zm.96,4.723v.274q0,5.008,0,10.02a1.407,1.407,0,0,0,1.523,1.509q2.957,0,5.914,0a1.417,1.417,0,0,0,1.537-1.527V53.4c0-.1-.01-.19-.014-.3-.465,0-.9,0-1.326,0a.49.49,0,0,0-.551.524,1.418,1.418,0,0,1-2.833.03c-.038-.412-.19-.554-.6-.555q-1.705,0-3.4,0c-.07,0-.141.007-.246.011m-.965,7.1H3.967c0,.594,0,1.168,0,1.742A1.423,1.423,0,0,0,5.517,63.51H16.235Zm-1.4-4.269c0-.326,0-.611,0-.9a1.41,1.41,0,0,0-1.46-1.47c-.422,0-.846,0-1.267,0A1.422,1.422,0,0,0,10.578,55.1c0,.275,0,.551,0,.851h-.76a1.433,1.433,0,0,0-1.6,1.6v.726a11.108,11.108,0,0,0-1.332.105,1.269,1.269,0,0,0-.937.857H16.231V55.952Zm11.322-3.785v-2.82H17.219v2.82H20.9a1.406,1.406,0,0,1,1.5,1.376.486.486,0,0,0,.455.509c.261.013.458-.188.489-.5a1.41,1.41,0,0,1,1.518-1.383h1.3m-9.48,12.746c-.185-.464-.185-.464-.629-.464H6.363c.03.355.178.474.568.474q4.767,0,9.532,0c.069,0,.138-.006.214-.01" transform="translate(1.217 3.133)"/>
    <path id="Path_1442" data-name="Path 1442" class="cls-2" d="M17.7,50.39a4.817,4.817,0,1,1,4.8-4.842,4.827,4.827,0,0,1-4.8,4.842M17.7,46.307c-.769.769-1.546,1.548-2.325,2.325,1.078,1.065,3.811,1.055,4.63-.007-.776-.78-1.546-1.557-2.3-2.318m3.072-3.043L18.415,45.6q1.125,1.17,2.282,2.368a3.821,3.821,0,0,0,.07-4.706m-.748-.752A3.733,3.733,0,0,0,15.4,42.5L17.7,44.838l2.316-2.327m-3.055,3.046L14.63,43.242a3.749,3.749,0,0,0-.007,4.634c.781-.77,1.562-1.547,2.342-2.318" transform="translate(5.216 0.037)"/>
    <path id="Path_1443" data-name="Path 1443" class="cls-1" d="M7.768,51.477a1.415,1.415,0,0,1,1.35,1.069A1.391,1.391,0,0,1,7.83,54.313c-1.943.02-3.888.015-5.833,0a1.386,1.386,0,0,1-1.331-1.26,1.408,1.408,0,0,1,1.038-1.51c.111-.028.228-.046.353-.074a1.4,1.4,0,0,1,1.251-1.374A1.4,1.4,0,0,1,4.9,51.174c.511-.9.988-1.207,1.675-1.081a1.46,1.46,0,0,1,1.192,1.383m-.96.953c0-.309.008-.577,0-.847a.786.786,0,0,0-.093-.354.413.413,0,0,0-.492-.191.464.464,0,0,0-.361.479c-.006.3,0,.6,0,.892H3.966c0-.3,0-.572,0-.849-.007-.336-.192-.544-.475-.542s-.457.211-.461.551c0,.278,0,.554,0,.861-.318,0-.6,0-.888,0a.476.476,0,1,0,0,.946q2.767,0,5.535,0a.478.478,0,1,0,0-.947c-.275-.006-.554,0-.867,0" transform="translate(0.267 3.809)"/>
    <path id="Path_1444" data-name="Path 1444" class="cls-1" d="M2.347,45.852a2.834,2.834,0,1,1,2.84,2.827,2.826,2.826,0,0,1-2.84-2.827m4.714-.013a1.89,1.89,0,0,0-1.886-1.891,1.909,1.909,0,0,0-1.891,1.891,1.888,1.888,0,0,0,3.777,0" transform="translate(0.951 0.95)"/>
    <rect id="Rectangle_721" data-name="Rectangle 721" class="cls-3" width="0.911" height="2.807" transform="translate(5.674 40.663)"/>
    <rect id="Rectangle_722" data-name="Rectangle 722" class="cls-3" width="2.806" height="0.903" transform="translate(0 46.34)"/>
    <rect id="Rectangle_723" data-name="Rectangle 723" class="cls-3" width="2.8" height="0.918" transform="translate(9.454 46.334)"/>
    <rect id="Rectangle_724" data-name="Rectangle 724" class="cls-3" width="0.912" height="2.805" transform="translate(5.677 50.115)"/>
    <path id="Path_1445" data-name="Path 1445" class="cls-1" d="M5.856,47.078c.176-.183.377-.385.548-.561.622.622,1.241,1.239,1.876,1.872l-.6.52c-.58-.583-1.2-1.2-1.822-1.831" transform="translate(2.372 2.371)"/>
    <path id="Path_1446" data-name="Path 1446" class="cls-1" d="M1.145,42.391c.187-.194.389-.406.572-.6l1.869,1.867-.592.585q-.921-.925-1.849-1.855" transform="translate(0.464 0.458)"/>
    <path id="Path_1447" data-name="Path 1447" class="cls-1" d="M6.424,44.253l-.568-.637,1.846-1.8c.173.183.384.4.587.614-.6.585-1.217,1.192-1.866,1.827" transform="translate(2.372 0.465)"/>
    <path id="Path_1448" data-name="Path 1448" class="cls-1" d="M3.568,47.128q-.9.9-1.842,1.832l-.583-.625c.6-.6,1.217-1.208,1.842-1.831.183.194.385.416.583.624" transform="translate(0.463 2.366)"/>
    <path id="Path_1449" data-name="Path 1449" class="cls-1" d="M10.6,52.785v.9a1.008,1.008,0,0,0-.932.86c-.007.041-.1.094-.152.1-.252.011-.5.006-.752.006A1.785,1.785,0,0,1,10.6,52.785" transform="translate(3.546 4.908)"/>
    <path id="Path_1450" data-name="Path 1450" class="cls-1" d="M9.261,54.456v.913a1.015,1.015,0,0,0-.947.936h-.9a1.832,1.832,0,0,1,1.852-1.849" transform="translate(2.999 5.586)"/>
    <path id="Path_1451" data-name="Path 1451" class="cls-1" d="M12.293,56.31h-.922a.994.994,0,0,0-.944-.934v-.9c.866-.18,1.866.792,1.866,1.834" transform="translate(4.224 5.587)"/>
  </g>
</svg>
