<svg xmlns="http://www.w3.org/2000/svg" width="25.668" height="28.615" viewBox="0 0 25.668 28.615">
  <defs>
    <style>
      .cls-1 {
        fill: #496ec1;
      }
    </style>
  </defs>
  <g id="Group_1619" data-name="Group 1619" transform="translate(0)">
    <path id="Path_1302" data-name="Path 1302" class="cls-1" d="M-613.324,1188.99a9.883,9.883,0,0,0,2.263.4c.284.021.568.037.852.053h13.946c.467-.033.955-.066,1.442-.114a7.41,7.41,0,0,0,2.068-.486,3.492,3.492,0,0,0,2.232-2.761c.049-.261.077-.526.115-.789v-1c-.009-.051-.02-.1-.027-.153-.053-.368-.078-.743-.161-1.1a8.414,8.414,0,0,0-4.8-5.961c-.043-.021-.089-.036-.107-.044.1.365.215.729.308,1.1a.218.218,0,0,0,.158.184,1.905,1.905,0,0,1,1.246,2.046,1.916,1.916,0,0,1-1.639,1.64,1.909,1.909,0,0,1-2.027-1.191,1.886,1.886,0,0,1,.657-2.242,5.845,5.845,0,0,1,.721-.373.153.153,0,0,0,0-.05,3.2,3.2,0,0,0-.758-1.472.551.551,0,0,0-.273-.156c-.319-.066-.644-.111-.929-.158a4.527,4.527,0,0,1-.3.683,7.747,7.747,0,0,1-.716.963,29.845,29.845,0,0,1-4.107,3.643.11.11,0,0,1-.16-.007,32.068,32.068,0,0,1-3.759-3.264,4.4,4.4,0,0,1-1.323-2.019c-.242.036-.487.072-.731.112a.215.215,0,0,0-.1.048,3.239,3.239,0,0,0-1.024,1.49.161.161,0,0,0,.076.222.48.48,0,0,1,.181.179,1.039,1.039,0,0,0,.544.491.2.2,0,0,1,.024.016,4.856,4.856,0,0,1,1.657,2.094,1.086,1.086,0,0,1,.032.364,1,1,0,0,0,.021.272,7.134,7.134,0,0,1,.416,3.432,1.172,1.172,0,0,1-.7,1.052c-.166.068-.33.14-.5.206a.483.483,0,0,1-.165.041c-.286,0-.573.013-.859,0a.526.526,0,0,1-.5-.517.515.515,0,0,1,.449-.529c.351-.013.7.008,1.055.026a.28.28,0,0,0,.291-.154,1.055,1.055,0,0,0,.06-.249,6.294,6.294,0,0,0-.4-3.062.49.49,0,0,0-.092-.12,1.951,1.951,0,0,1-.271-.322,4.552,4.552,0,0,0-.907-1.277,1.153,1.153,0,0,0-1.773-.019c-.025.022-.049.045-.073.068a4.808,4.808,0,0,0-.9,1.315,1.962,1.962,0,0,1-.287.344c-.047.055-.118.1-.135.166-.117.427-.251.852-.326,1.287a5.081,5.081,0,0,0,.009,1.739c.045.257.183.33.431.266a.581.581,0,0,1,.141-.018c.263,0,.525-.005.788,0a.53.53,0,0,1,.522.507.5.5,0,0,1-.479.542c-.406-.007-.832.123-1.214-.128a.183.183,0,0,0-.055-.013,1.189,1.189,0,0,1-1.02-1.145,7.031,7.031,0,0,1,.387-3.365,1.469,1.469,0,0,0,.039-.3,1.393,1.393,0,0,1,.058-.346,5.176,5.176,0,0,1,.3-.6,4.292,4.292,0,0,1,1.486-1.615.678.678,0,0,0,.333-.329.367.367,0,0,1,.137-.18,1.011,1.011,0,0,0,.414-.7,6.751,6.751,0,0,1,.285-.693.064.064,0,0,0-.023,0c-.036.013-.072.025-.107.041a8.4,8.4,0,0,0-2.492,1.626,8.37,8.37,0,0,0-2.572,4.838c-.045.277-.074.557-.11.835v1c.042.287.072.576.129.859A3.556,3.556,0,0,0-613.324,1188.99Z" transform="translate(616.074 -1160.827)"/>
    <path id="Path_1303" data-name="Path 1303" class="cls-1" d="M-387.072,634.368c.277.043.558.072.831.132A6.377,6.377,0,0,1-382,637.6a7.07,7.07,0,0,1,.924,4.516,15.544,15.544,0,0,1-.525,2.881,9.667,9.667,0,0,1-2,3.71,5.507,5.507,0,0,1-2.822,1.788,4.608,4.608,0,0,1-3.915-.83,7.71,7.71,0,0,1-2.378-2.927,11.82,11.82,0,0,1-1.173-4.324,12.5,12.5,0,0,1-.077-1.585,6.76,6.76,0,0,1,4.474-6.129,6.082,6.082,0,0,1,1.438-.3,1.077,1.077,0,0,0,.124-.025Zm-6.025,8.076a.8.8,0,0,0-.009.09,10.664,10.664,0,0,0,.932,3.493,7.151,7.151,0,0,0,1.958,2.593,4.128,4.128,0,0,0,5.3.1,6.461,6.461,0,0,0,1.637-1.858,9.964,9.964,0,0,0,1.3-3.729c.032-.214.054-.429.081-.643l-.036-.032-.851.4c0-.045.008-.1.015-.148a10.956,10.956,0,0,0,.1-2.327,3.55,3.55,0,0,0-.278-1.235,1.074,1.074,0,0,0-.47-.54.222.222,0,0,0-.168-.01,11.623,11.623,0,0,1-2.117.691,7.407,7.407,0,0,1-1.9.229,10.442,10.442,0,0,1-3.775-.9.26.26,0,0,0-.287.027,1.391,1.391,0,0,0-.512.789,6.79,6.79,0,0,0-.158,2.443c.023.332.066.662.1.983Z" transform="translate(400.336 -634.368)"/>
    <path id="Path_1304" data-name="Path 1304" class="cls-1" d="M63.3,1275.841a.953.953,0,1,1,.96-.949A.954.954,0,0,1,63.3,1275.841Z" transform="translate(-42.914 -1255.612)"/>
  </g>
</svg>
