<svg xmlns="http://www.w3.org/2000/svg" width="20.587" height="28.342" viewBox="0 0 20.587 28.342">
  <defs>
    <style>
      .cls-1 {
        fill: #0689b7;
      }

      .cls-1, .cls-2 {
        fill-rule: evenodd;
      }

      .cls-2 {
        fill: #8dc63f;
      }
    </style>
  </defs>
  <g id="Group_1739" data-name="Group 1739" transform="translate(-3.081 -77.117)">
    <path id="Path_1452" data-name="Path 1452" class="cls-1" d="M4.757,101.307c0-.432-.006-.836,0-1.239a.411.411,0,0,1,.553-.43.4.4,0,0,1,.272.412c0,.389,0,.776,0,1.164,0,.134.038.191.183.2q4.182.381,8.364.771c.067.006.133,0,.241,0,0-.248.013-.491,0-.731a1.5,1.5,0,0,1,1.837-1.591c.885.166,1.782.272,2.677.4a1.3,1.3,0,0,0,1.556-1.308c.015-.386,0-.775,0-1.163,0-.7,0-1.4,0-2.1a1.59,1.59,0,0,1,1.592-1.675.776.776,0,0,0,.7-1.166c-.373-.8-.778-1.592-1.13-2.4a3,3,0,0,1-.231-1c-.064-1.025-.018-2.063-.139-3.081a9.683,9.683,0,0,0-7.825-8.265,9.528,9.528,0,0,0-6.521,1.108.706.706,0,0,1-.066.038.418.418,0,1,1-.417-.721,10.087,10.087,0,0,1,2.88-1.145,10.482,10.482,0,0,1,12.729,8.584c.173,1.1.114,2.236.186,3.355a2.616,2.616,0,0,0,.2.869c.358.81.77,1.6,1.125,2.406a1.593,1.593,0,0,1-1.1,2.2,3.4,3.4,0,0,1-.374.044.775.775,0,0,0-.779.849c0,1.071,0,2.143,0,3.216a2.145,2.145,0,0,1-1.455,2.1,2.391,2.391,0,0,1-1.174.071c-.885-.134-1.768-.266-2.655-.385a.626.626,0,0,0-.792.7c0,.237.007.474,0,.71-.006.153.055.2.2.214a1.588,1.588,0,0,1,1.211,2.437,1.332,1.332,0,0,1-1.208.709q-5.452,0-10.909-.006a1.385,1.385,0,0,1-1.412-1.414c0-.42,0-.842,0-1.264a1.386,1.386,0,0,1,1.479-1.467Zm5.171,3.313v.01h3.316c.691,0,1.383,0,2.073,0a.583.583,0,0,0,.645-.645c0-.084,0-.169,0-.253a.566.566,0,0,0-.545-.589c-.42-.046-.838-.077-1.258-.116l-5.165-.478c-1.47-.137-2.938-.276-4.408-.408a.572.572,0,0,0-.673.628c0,.363,0,.724,0,1.089,0,.574.184.761.753.761q2.633,0,5.264,0"/>
    <path id="Path_1453" data-name="Path 1453" class="cls-2" d="M12.907,89.42a1.3,1.3,0,0,1-.05,1.945,1.232,1.232,0,0,1-.985.507,6.679,6.679,0,0,1-1.1-.319c-.015.066-.04.171-.061.277a1.205,1.205,0,0,1-1.076,1,2.954,2.954,0,0,1-.4.013,1.23,1.23,0,0,1-1.327-1.124c-.037-.219-.092-.272-.291-.133a1.224,1.224,0,0,1-1.795-.2,1.228,1.228,0,0,1-.2-1.8c.14-.2.077-.255-.136-.3-.808-.154-1.133-.589-1.125-1.478a1.238,1.238,0,0,1,1.145-1.341c.316-.054.188-.178.082-.327a1.225,1.225,0,0,1-.012-1.5A1.416,1.416,0,0,1,7.2,83.974a1.457,1.457,0,0,1,.406.221c.176.133.255.131.3-.115a1.475,1.475,0,0,1,2.395-.839,1.211,1.211,0,0,1,.43.834c.026.236.11.254.3.122a1.231,1.231,0,0,1,1.774.182,1.231,1.231,0,0,1,.208,1.817c-.148.209-.073.259.139.288a1.153,1.153,0,0,1,1.07.93,1.456,1.456,0,0,1-.44,1.635,4.369,4.369,0,0,1-.875.37m.343-1.5c0-.33-.034-.376-.281-.42a1.141,1.141,0,0,1-.781-1.9c.166-.235.031-.351-.108-.5s-.266-.217-.475-.065a1.117,1.117,0,0,1-1.872-.764c-.042-.269-.191-.3-.412-.3s-.367.024-.407.3a1.127,1.127,0,0,1-1.879.765c-.23-.171-.346-.06-.5.087s-.241.276-.076.5a1.128,1.128,0,0,1-.748,1.872c-.285.042-.325.181-.326.417s.055.362.314.4a1.118,1.118,0,0,1,.768,1.856c-.159.215-.106.34.059.5s.3.246.529.072a1.131,1.131,0,0,1,1.853.756c.039.277.17.334.412.335s.376-.066.413-.338a1.124,1.124,0,0,1,1.825-.767.346.346,0,0,0,.534-.038.354.354,0,0,0,.045-.553,1.122,1.122,0,0,1,.753-1.815c.275-.04.39-.156.356-.393" transform="translate(0.285 1.282)"/>
    <path id="Path_1454" data-name="Path 1454" class="cls-2" d="M8.744,85.548a1.764,1.764,0,0,1,1.77,1.78,1.794,1.794,0,0,1-1.775,1.756,1.769,1.769,0,0,1-1.76-1.791,1.744,1.744,0,0,1,1.765-1.745M9.486,87.3a.745.745,0,1,0-.746.753.741.741,0,0,0,.746-.753" transform="translate(0.864 1.869)"/>
  </g>
</svg>
