<svg xmlns="http://www.w3.org/2000/svg" width="23.709" height="28.684" viewBox="0 0 23.709 28.684">
  <defs>
    <style>
      .cls-1 {
        fill: #0689b7;
      }

      .cls-1, .cls-2 {
        fill-rule: evenodd;
      }

      .cls-2 {
        fill: #8dc63f;
      }
    </style>
  </defs>
  <g id="Group_1737" data-name="Group 1737" transform="translate(-1.748 0)">
    <path id="Path_1425" data-name="Path 1425" class="cls-1" d="M20.989,24.148V15.93c0-.423.144-.631.431-.626s.417.21.417.614V24.4c0,.482-.125.607-.6.607H4.424v.955H22.8v-6.4c0-.086,0-.171,0-.256a.424.424,0,1,1,.84.017q0,3.507,0,7.018a.43.43,0,0,1-.466.487c-.086.005-.17,0-.257,0H6.234v1.022h.278q8.9,0,17.8.006c.249,0,.312-.075.31-.32-.012-1.194-.005-2.389-.005-3.583a1.328,1.328,0,0,1,.014-.281.413.413,0,0,1,.812,0,1.369,1.369,0,0,1,.016.253q0,2.077,0,4.149c0,.495-.12.612-.624.612q-9.425,0-18.847,0c-.492,0-.616-.125-.617-.621,0-.4,0-.8,0-1.239H4.207c-.534,0-.646-.113-.646-.647,0-.316-.009-.631.005-.947C3.575,25.045,3.5,25,3.329,25c-.366.01-.733.006-1.1,0-.32-.005-.464-.151-.478-.473,0-.068,0-.136,0-.2q0-11.82,0-23.637c0-.084,0-.17,0-.256A.421.421,0,0,1,2.194,0C2.264,0,2.331,0,2.4,0H21.2c.527,0,.639.114.64.648q0,.538.006,1.074a.358.358,0,0,0,.03.083h1.154c.5,0,.614.121.616.622,0,.343.008.685,0,1.024-.006.184.061.235.236.23.365-.01.733-.008,1.1,0,.321.005.462.149.479.472,0,.077,0,.155,0,.23q0,8.556,0,17.107a1.967,1.967,0,0,1-.019.382.412.412,0,0,1-.8,0,1.713,1.713,0,0,1-.018-.356V4.9c0-.374,0-.374-.374-.374h-.6V17.009c0,.095,0,.188,0,.282a.416.416,0,0,1-.83.039A2.572,2.572,0,0,1,22.8,17V2.672h-.961V13.518a1.715,1.715,0,0,1-.013.307.418.418,0,0,1-.439.349A.411.411,0,0,1,21,13.795a1.832,1.832,0,0,1-.008-.281V.856H2.608c-.005.1-.016.19-.016.281q0,11.356-.005,22.714c0,.243.061.317.31.317q8.9-.01,17.8-.006c.084,0,.168-.006.294-.013" transform="translate(0 0)"/>
    <path id="Path_1426" data-name="Path 1426" class="cls-2" d="M3.409,5.959V2.223c0-.436.129-.565.564-.565q2.687,0,5.373,0c.423,0,.562.143.562.574q0,3.749,0,7.5c0,.438-.143.581-.583.581q-2.673,0-5.348,0c-.433,0-.568-.134-.568-.565ZM9.04,2.514H4.266v6.94H9.04Z" transform="translate(0.497 0.495)"/>
    <path id="Path_1427" data-name="Path 1427" class="cls-2" d="M13.358,4.424H9.927c-.468,0-.6-.129-.6-.59q0-.807,0-1.615c0-.42.136-.561.548-.561q3.5,0,6.99,0c.4,0,.542.139.546.539,0,.562,0,1.125,0,1.689,0,.4-.147.538-.547.538q-1.756,0-3.509,0m3.213-1.91H10.189V3.586h5.873a1.339,1.339,0,0,0,.331-.009c.068-.016.165-.095.168-.153.019-.295.009-.594.009-.909" transform="translate(2.267 0.495)"/>
    <path id="Path_1428" data-name="Path 1428" class="cls-1" d="M12.443,10.076H7.376A2.216,2.216,0,0,1,7.1,10.07a.389.389,0,0,1-.373-.386.4.4,0,0,1,.343-.439,1.547,1.547,0,0,1,.279-.012H17.579c.408,0,.6.138.608.421s-.195.422-.6.422Z" transform="translate(1.488 2.761)"/>
    <path id="Path_1429" data-name="Path 1429" class="cls-1" d="M12.433,14.783H7.367a1.827,1.827,0,0,1-.281-.008.416.416,0,0,1-.036-.82,1.259,1.259,0,0,1,.281-.018H17.564c.052,0,.1,0,.153,0,.292.013.475.182.47.431s-.184.412-.485.413q-2.635,0-5.27,0" transform="translate(1.488 4.168)"/>
    <path id="Path_1430" data-name="Path 1430" class="cls-2" d="M12.473,15.509h4.994c.086,0,.169,0,.255,0,.294.017.46.162.465.407s-.168.418-.465.433c-.068,0-.135,0-.205,0H7.376a1.533,1.533,0,0,1-.355-.027.372.372,0,0,1-.3-.417.368.368,0,0,1,.321-.375,1.664,1.664,0,0,1,.331-.021c1.7,0,3.4,0,5.1,0" transform="translate(1.488 4.638)"/>
    <path id="Path_1431" data-name="Path 1431" class="cls-1" d="M12.473,11.647H7.505c-.069,0-.136,0-.2,0-.39,0-.577-.138-.578-.421s.186-.42.578-.42q5.156,0,10.318,0a1.056,1.056,0,0,1,.279.025.413.413,0,0,1-.025.792,1.767,1.767,0,0,1-.334.021c-1.689,0-3.376,0-5.068,0" transform="translate(1.488 3.232)"/>
    <path id="Path_1432" data-name="Path 1432" class="cls-1" d="M12.446,13.212h-5.2c-.347,0-.529-.148-.525-.42a.383.383,0,0,1,.344-.408,1.57,1.57,0,0,1,.282-.01H17.541c.052,0,.1,0,.155,0,.316.008.5.166.49.43s-.187.405-.488.407q-2.331,0-4.661,0Z" transform="translate(1.488 3.7)"/>
    <path id="Path_1433" data-name="Path 1433" class="cls-2" d="M13.376,5.55H9.942a1.907,1.907,0,0,1-.229-.005.415.415,0,0,1-.381-.412.409.409,0,0,1,.344-.417A1.2,1.2,0,0,1,9.933,4.7H16.8a1.775,1.775,0,0,1,.2,0,.427.427,0,0,1,.407.443.419.419,0,0,1-.421.4c-.069.005-.138,0-.207,0Z" transform="translate(2.268 1.406)"/>
    <path id="Path_1434" data-name="Path 1434" class="cls-2" d="M13.353,6.939c-1.16,0-2.319.005-3.48,0a.635.635,0,0,1-.4-.118.452.452,0,0,1-.121-.381.649.649,0,0,1,.291-.31.617.617,0,0,1,.3-.029h6.938c.335.008.524.169.517.434s-.191.407-.514.407c-1.178,0-2.357,0-3.535,0" transform="translate(2.273 1.823)"/>
    <path id="Path_1435" data-name="Path 1435" class="cls-1" d="M13.382,7.672c1.161,0,2.321,0,3.482.005a.706.706,0,0,1,.422.129.4.4,0,0,1-.195.682,1.249,1.249,0,0,1-.3.023H9.824c-.309-.009-.5-.179-.491-.435s.188-.4.491-.4c1.187,0,2.373,0,3.558,0" transform="translate(2.268 2.294)"/>
    <path id="Path_1436" data-name="Path 1436" class="cls-1" d="M4.946,14.783c-.357,0-.716.005-1.072,0a.415.415,0,0,1-.462-.4.411.411,0,0,1,.457-.436q1.083-.012,2.169,0a.414.414,0,0,1,.461.431c-.005.252-.179.4-.483.411-.356,0-.714,0-1.07,0" transform="translate(0.498 4.168)"/>
    <path id="Path_1437" data-name="Path 1437" class="cls-1" d="M4.959,16.352c-.348,0-.7,0-1.05,0-.325-.006-.5-.157-.5-.421s.171-.416.5-.418q1.037-.008,2.073,0c.335,0,.507.145.513.407s-.177.429-.516.433-.683,0-1.025,0" transform="translate(0.498 4.638)"/>
    <path id="Path_1438" data-name="Path 1438" class="cls-1" d="M4.94,10.077c-.349,0-.7,0-1.05,0-.3-.005-.478-.161-.478-.416a.417.417,0,0,1,.47-.425q1.076-.01,2.153,0a.416.416,0,0,1,.465.431.411.411,0,0,1-.459.408c-.368.008-.735,0-1.1,0" transform="translate(0.498 2.76)"/>
    <path id="Path_1439" data-name="Path 1439" class="cls-1" d="M4.967,10.805c.351,0,.7-.005,1.05,0,.305.005.481.157.483.411s-.164.423-.469.426q-1.076.014-2.15,0c-.307,0-.472-.165-.469-.423s.173-.408.481-.413c.357-.006.716,0,1.074,0" transform="translate(0.498 3.231)"/>
    <path id="Path_1440" data-name="Path 1440" class="cls-1" d="M4.959,13.212c-.356,0-.717,0-1.074,0-.3,0-.474-.16-.473-.418s.173-.414.477-.416q1.062,0,2.125,0c.307,0,.479.152.486.405s-.171.426-.491.43c-.349,0-.7,0-1.05,0" transform="translate(0.498 3.701)"/>
  </g>
</svg>
