<svg xmlns="http://www.w3.org/2000/svg" width="21.547" height="28.616" viewBox="0 0 21.547 28.616">
  <defs>
    <style>
      .cls-1 {
        fill: #feb74c;
      }
    </style>
  </defs>
  <path id="Path_1298" data-name="Path 1298" class="cls-1" d="M-298.87,230.259q0-5.827,0-11.653a2.605,2.605,0,0,1,2.65-2.653h16.23a2.6,2.6,0,0,1,2.664,2.624c0,.281,0,.562,0,.843q0,11.208,0,22.416a2.59,2.59,0,0,1-1.461,2.462,2.451,2.451,0,0,1-1.082.267c-.083,0-.167,0-.25,0h-16.058a2.589,2.589,0,0,1-2.587-1.886,2.9,2.9,0,0,1-.1-.77Q-298.875,236.085-298.87,230.259Zm10.757-11.788c-2.385,0-4.769.013-7.154-.007a1.36,1.36,0,0,0-1.4,1.4c.024,1.52.007,3.041.008,4.561a1.565,1.565,0,0,0,.017.28,1.3,1.3,0,0,0,1.315,1.083h14.37a1.308,1.308,0,0,0,1.384-1.394q0-2.257,0-4.514a1.3,1.3,0,0,0-1.4-1.407Zm8.552,19.157h0c0-.968,0-1.936,0-2.9a1.283,1.283,0,0,0-1.314-1.313q-.734,0-1.468,0a1.286,1.286,0,0,0-1.324,1.335q0,2.865,0,5.731a1.287,1.287,0,0,0,1.353,1.353c.458,0,.916,0,1.374,0a1.292,1.292,0,0,0,1.379-1.376Q-279.559,239.041-279.561,237.628Zm-8.533-6.407h0c.255,0,.51.007.765,0a1.291,1.291,0,0,0,1.28-1.191,4.274,4.274,0,0,0,0-.733,1.287,1.287,0,0,0-1.276-1.193q-.78-.011-1.561,0a1.263,1.263,0,0,0-1.247,1.095,3.619,3.619,0,0,0-.008.871,1.277,1.277,0,0,0,1.281,1.151C-288.6,231.226-288.348,231.221-288.093,231.221Zm-.005,5.3v-.008c.291,0,.584.017.873,0a1.251,1.251,0,0,0,1.159-1.081,4.112,4.112,0,0,0,.018-.825,1.278,1.278,0,0,0-1.254-1.2c-.536-.009-1.072-.01-1.607,0a1.266,1.266,0,0,0-1.223,1.086,4.975,4.975,0,0,0-.023.669,1.3,1.3,0,0,0,1.339,1.357C-288.577,236.528-288.338,236.525-288.1,236.525Zm6.49-8.424h0c-.265,0-.531-.006-.8,0a1.287,1.287,0,0,0-1.264,1.284c0,.172,0,.343,0,.515a1.285,1.285,0,0,0,1.266,1.314c.52.016,1.04.014,1.56,0a1.275,1.275,0,0,0,1.258-1.07,4.48,4.48,0,0,0,.021-.778,1.287,1.287,0,0,0-1.265-1.267C-281.088,228.1-281.348,228.1-281.608,228.1Zm-12.967,3.1v.018c.25,0,.5.005.749,0a1.3,1.3,0,0,0,1.3-1.317c0-.187,0-.375,0-.562a1.282,1.282,0,0,0-1.246-1.237c-.535-.012-1.071-.01-1.607,0a1.25,1.25,0,0,0-1.212,1,4.3,4.3,0,0,0-.037.854,1.259,1.259,0,0,0,1.107,1.235A8.818,8.818,0,0,0-294.575,231.2Zm0,2.207h0c-.271,0-.542-.006-.812,0a1.257,1.257,0,0,0-1.2,1,4.267,4.267,0,0,0-.038.793,1.267,1.267,0,0,0,1.231,1.314c.551.025,1.1.023,1.655,0a1.271,1.271,0,0,0,1.219-1.264c.006-.193.005-.385,0-.578a1.286,1.286,0,0,0-1.27-1.264C-294.058,233.406-294.319,233.41-294.579,233.41Zm6.475,8.42v0c.276,0,.552.009.827,0a1.257,1.257,0,0,0,1.21-1.081,3.646,3.646,0,0,0,.01-.886,1.268,1.268,0,0,0-1.3-1.141c-.5,0-1.009,0-1.514,0a1.27,1.27,0,0,0-1.261,1.1,5.038,5.038,0,0,0-.021.685,1.293,1.293,0,0,0,1.3,1.329C-288.6,241.834-288.354,241.83-288.1,241.83Zm-6.462-3.113h0c-.265,0-.531,0-.8,0a1.286,1.286,0,0,0-1.272,1.275c0,.182,0,.364,0,.546a1.278,1.278,0,0,0,1.259,1.287q.8.02,1.607,0a1.276,1.276,0,0,0,1.239-1.241c.007-.208.008-.416,0-.624a1.283,1.283,0,0,0-1.272-1.242C-294.057,238.715-294.311,238.717-294.566,238.717Z" transform="translate(298.871 -215.952)"/>
</svg>
