<svg xmlns="http://www.w3.org/2000/svg" width="18.519" height="18.522" viewBox="0 0 18.519 18.522">
  <defs>
    <style>
      .cls-1 {
        fill: #898989;
      }
    </style>
  </defs>
  <g id="Group_1758" data-name="Group 1758" transform="translate(3118 -1441.859)">
    <path id="Path_85" data-name="Path 85" class="cls-1" d="M-2717.79-804.63h-3.986a3.289,3.289,0,0,1-3.277-3.265q0-2,0-4.007a.659.659,0,0,1,.545-.655.659.659,0,0,1,.741.454.97.97,0,0,1,.031.284q0,1.911,0,3.821a1.98,1.98,0,0,0,2.042,2.046h7.828a1.98,1.98,0,0,0,2.029-2.018q0-1.962,0-3.924a.659.659,0,0,1,.558-.664.661.661,0,0,1,.734.467.848.848,0,0,1,.026.244q0,2.014,0,4.028a3.3,3.3,0,0,1-2.736,3.143,5.071,5.071,0,0,1-.7.043c-1.281,0-2.561,0-3.842,0Z" transform="translate(-390.955 2265.011)"/>
    <path id="Path_86" data-name="Path 86" class="cls-1" d="M-2750.59-995.9l-2.131,2.132q-2.949,2.951-5.9,5.9a.757.757,0,0,1-.572.28.632.632,0,0,1-.59-.38.631.631,0,0,1,.07-.681,1.4,1.4,0,0,1,.14-.151l8.44-8.441a.67.67,0,0,1,1.077-.01q4.236,4.234,8.47,8.47a.673.673,0,0,1-.072,1.105.667.667,0,0,1-.844-.138q-1.25-1.247-2.5-2.5l-5.459-5.464C-2750.493-995.809-2750.534-995.844-2750.59-995.9Z" transform="translate(-358.151 2439.37)"/>
  </g>
</svg>
