<svg xmlns="http://www.w3.org/2000/svg" width="18.518" height="18.522" viewBox="0 0 18.518 18.522">
  <defs>
    <style>
      .cls-1 {
        fill: #898989;
      }
    </style>
  </defs>
  <g id="Group_1759" data-name="Group 1759" transform="translate(2870 -1441.859)">
    <path id="Path_1285" data-name="Path 1285" class="cls-1" d="M355.451,62.5c-.029.116-.055.232-.087.347a2.382,2.382,0,0,1-2.284,1.749q-1.97.009-3.941,0a2.38,2.38,0,0,1-2.366-2.377q-.008-1.962,0-3.924a2.381,2.381,0,0,1,2.384-2.377q1.943-.008,3.887,0a2.379,2.379,0,0,1,2.376,2.015.47.47,0,0,0,.031.082Zm-7.522-2.243c0,.633,0,1.265,0,1.9a1.23,1.23,0,0,0,1.285,1.285q1.9,0,3.794,0a1.229,1.229,0,0,0,1.285-1.285q0-1.9,0-3.8a1.229,1.229,0,0,0-1.285-1.285q-1.9,0-3.794,0a1.229,1.229,0,0,0-1.285,1.285C347.928,58.988,347.929,59.62,347.929,60.253Z" transform="translate(-3206.933 1385.948)"/>
    <path id="Path_1286" data-name="Path 1286" class="cls-1" d="M317.736,95.731c-.19-.054-.384-.095-.568-.165a2.365,2.365,0,0,1-1.528-2.207q-.007-1.971,0-3.942A2.378,2.378,0,0,1,318,87.052q1.979-.011,3.959,0a2.378,2.378,0,0,1,2.359,2.366c.007,1.3,0,2.6,0,3.906A2.382,2.382,0,0,1,322.3,95.7a.491.491,0,0,0-.082.031Zm-.94-4.34c0,.633,0,1.265,0,1.9a1.23,1.23,0,0,0,1.285,1.284q1.9,0,3.795,0a1.229,1.229,0,0,0,1.284-1.286q0-1.9,0-3.8a1.228,1.228,0,0,0-1.285-1.284q-1.9,0-3.794,0a1.229,1.229,0,0,0-1.284,1.286C316.794,90.126,316.8,90.758,316.8,91.391Z" transform="translate(-3185.636 1364.65)"/>
    <path id="Path_1287" data-name="Path 1287" class="cls-1" d="M350.71,95.751c-.349-.083-.707-.141-1.046-.255a4.337,4.337,0,1,1,5.738-4.729c.013.082.03.164.046.245v.8a.684.684,0,0,0-.031.1,4.278,4.278,0,0,1-3.018,3.64,7.785,7.785,0,0,1-.893.2Zm3.58-4.333a3.182,3.182,0,1,0-3.195,3.175A3.187,3.187,0,0,0,354.29,91.419Z" transform="translate(-3206.929 1364.629)"/>
    <path id="Path_1289" data-name="Path 1289" class="cls-1" d="M319.982,55.916q.95,0,1.9,0a2.384,2.384,0,0,1,2.441,2.432q0,1.908,0,3.816A2.384,2.384,0,0,1,321.9,64.6q-1.917,0-3.833,0a2.384,2.384,0,0,1-2.423-2.432q0-1.908,0-3.816a2.384,2.384,0,0,1,2.423-2.432C318.7,55.914,319.343,55.916,319.982,55.916ZM316.8,60.257c0,.633,0,1.265,0,1.9a1.23,1.23,0,0,0,1.286,1.284q1.9,0,3.794,0a1.229,1.229,0,0,0,1.284-1.286q0-1.9,0-3.8a1.228,1.228,0,0,0-1.285-1.284q-1.9,0-3.794,0a1.229,1.229,0,0,0-1.284,1.286C316.8,58.992,316.8,59.624,316.8,60.257Z" transform="translate(-3185.64 1385.945)"/>
  </g>
</svg>
