<svg xmlns="http://www.w3.org/2000/svg" width="18.082" height="18.522" viewBox="0 0 18.082 18.522">
  <defs>
    <style>
      .cls-1 {
        fill: #898989;
      }
    </style>
  </defs>
  <g id="Group_1760" data-name="Group 1760" transform="translate(2780 -1441.859)">
    <path id="Path_83" data-name="Path 83" class="cls-1" d="M-3022.394-998c.226.054.452.106.676.163a5.216,5.216,0,0,1,3.892,5.409,5.242,5.242,0,0,1-4.29,4.781,5.224,5.224,0,0,1-6.084-5.6,5.227,5.227,0,0,1,4.411-4.7.79.79,0,0,0,.153-.055Zm3.219,5.217a3.863,3.863,0,0,0-3.841-3.858,3.861,3.861,0,0,0-3.839,3.831,3.864,3.864,0,0,0,3.826,3.874A3.864,3.864,0,0,0-3019.175-992.783Z" transform="translate(252.047 2439.859)"/>
    <path id="Path_84" data-name="Path 84" class="cls-1" d="M-3095.178-775.618c-.295-.114-.595-.242-.616-.61a.981.981,0,0,1,.118-.534,10.078,10.078,0,0,1,7.065-4.966,10.242,10.242,0,0,1,10.72,4.895,1.3,1.3,0,0,1,.155.329.676.676,0,0,1-.381.8.7.7,0,0,1-.861-.286,16.226,16.226,0,0,0-1.075-1.484,8.593,8.593,0,0,0-6.86-3.049,8.681,8.681,0,0,0-7.481,4.32,1.174,1.174,0,0,1-.671.59Z" transform="translate(315.796 2235.999)"/>
  </g>
</svg>
