<svg xmlns="http://www.w3.org/2000/svg" width="16.005" height="18.522" viewBox="0 0 16.005 18.522">
  <defs>
    <style>
      .cls-1 {
        fill: #898989;
      }
    </style>
  </defs>
  <g id="Group_1757" data-name="Group 1757" transform="translate(3022 -1441.5)">
    <path id="Path_1494" data-name="Path 1494" class="cls-1" d="M0,10.283Q0,7.1,0,3.915a1.78,1.78,0,0,1,1.413-1.84,2.483,2.483,0,0,1,.6-.036c.2.007.277-.057.272-.265-.01-.4-.1-.435.43-.432s1.08-.007,1.619,0A.357.357,0,0,0,4.727,1.1,1.724,1.724,0,0,1,6.412,0,1.729,1.729,0,0,1,8.078,1.125a.3.3,0,0,0,.325.219c.6-.008,1.208.006,1.811-.007.243-.005.32.082.314.319-.01.376,0,.376.37.378a1.773,1.773,0,0,1,1.89,1.889c0,1.016,0,2.031,0,3.047a.478.478,0,0,1-.32.518.454.454,0,0,1-.6-.424c-.022-.254-.01-.512-.01-.768,0-.805-.012-1.61,0-2.415.011-.622-.432-1.022-1.193-.924-.055.007-.131.12-.135.188a6.036,6.036,0,0,0-.006.74c.012.227-.076.3-.3.3-1.327-.008-2.653,0-3.98,0-1.208,0-2.415-.006-3.623.005-.261,0-.366-.072-.342-.341.02-.227,0-.457,0-.686,0-.15-.059-.206-.21-.218A.952.952,0,0,0,.923,3.986c.016,4.2.008,8.4.008,12.6,0,.695.309,1,1,1.005H10.88a.852.852,0,0,0,.978-.97c0-.192-.006-.385.006-.576a.472.472,0,0,1,.479-.492.46.46,0,0,1,.441.5,5.95,5.95,0,0,1-.05,1.065,1.714,1.714,0,0,1-1.674,1.4q-4.666.014-9.332,0A1.768,1.768,0,0,1,0,16.65C0,14.528,0,12.4,0,10.283m6.383-7.03H8.878c.744,0,.739,0,.719-.743,0-.175-.058-.243-.237-.24-.512.008-1.023,0-1.535,0s-.509,0-.534-.5a.9.9,0,0,0-1.772-.155,1.212,1.212,0,0,0-.023.353c.019.223-.06.309-.292.3-.447-.015-.9,0-1.343,0-.678,0-.666,0-.675.683,0,.252.09.3.32.3.959-.011,1.919,0,2.878,0" transform="translate(-3022 1441.5)"/>
    <path id="Path_1495" data-name="Path 1495" class="cls-1" d="M165.014,145.8a3.675,3.675,0,1,1-3.651-3.686,3.7,3.7,0,0,1,3.651,3.686m-.924-.012a2.757,2.757,0,1,0-2.763,2.752,2.77,2.77,0,0,0,2.763-2.752" transform="translate(-3171.009 1307.192)"/>
    <path id="Path_1496" data-name="Path 1496" class="cls-1" d="M56.026,118.253H53.886a2.383,2.383,0,0,1-.247,0,.46.46,0,0,1,0-.919,2.522,2.522,0,0,1,.274-.006h4.281c.064,0,.128,0,.192,0a.482.482,0,0,1,.5.449.473.473,0,0,1-.5.475c-.219.009-.439,0-.659,0h-1.7" transform="translate(-3072.278 1330.618)"/>
    <path id="Path_1497" data-name="Path 1497" class="cls-1" d="M56.051,160.154c.732,0,1.463,0,2.195,0a1.1,1.1,0,0,1,.3.028.449.449,0,0,1,.011.86,1.218,1.218,0,0,1-.352.038q-2.167,0-4.334,0c-.449,0-.679-.158-.681-.461s.221-.466.67-.466h2.195" transform="translate(-3072.267 1290.138)"/>
    <path id="Path_1498" data-name="Path 1498" class="cls-1" d="M55.184,203.9c-.5,0-1.006,0-1.509,0a.476.476,0,0,1-.531-.464.465.465,0,0,1,.525-.44q1.523,0,3.045,0a.455.455,0,1,1,.006.9c-.512.006-1.024,0-1.536,0" transform="translate(-3072.226 1249.65)"/>
    <path id="Path_1499" data-name="Path 1499" class="cls-1" d="M217.484,177.874a.408.408,0,0,1-.3-.107.441.441,0,0,1,0-.585.462.462,0,0,1,.593,0,.441.441,0,0,1,0,.585.408.408,0,0,1-.3.107m-.167-1.237-.181-2.333v-.144a2.331,2.331,0,0,1,.328-.031,3.371,3.371,0,0,1,.369.009v.167l-.182,2.333Z" transform="translate(-3227.16 1276.933)"/>
    <path id="Path_1500" data-name="Path 1500" class="cls-1" d="M216.539,176.984a.463.463,0,0,1-.334-.123.5.5,0,0,1,0-.664.517.517,0,0,1,.669,0,.5.5,0,0,1,0,.664.463.463,0,0,1-.334.123m0-.8a.353.353,0,0,0-.258.092.387.387,0,0,0,0,.506.408.408,0,0,0,.516,0,.387.387,0,0,0,0-.506.353.353,0,0,0-.258-.092m.167-.437h-.333a.055.055,0,0,1-.055-.051l-.182-2.334v-.149a.055.055,0,0,1,.045-.054,2.4,2.4,0,0,1,.335-.032,3.47,3.47,0,0,1,.375.009.055.055,0,0,1,.051.055v.167l-.182,2.338a.055.055,0,0,1-.055.051m-.283-.11h.232l.178-2.283v-.111c-.107-.007-.211-.009-.312-.006a2.388,2.388,0,0,0-.275.023v.1Z" transform="translate(-3226.215 1277.878)"/>
  </g>
</svg>
